<?xml version="1.0" encoding="iso-8859-1"?>
<!-- Uploaded to: SVG Repo, www.svgrepo.com, Generator: SVG Repo Mixer Tools -->
<svg height="800px" width="800px" version="1.1" id="Layer_1" xmlns="http://www.w3.org/2000/svg" xmlns:xlink="http://www.w3.org/1999/xlink" 
	 viewBox="0 0 512.001 512.001" xml:space="preserve">
<circle style="fill:#394CE2;" cx="256.001" cy="255.996" r="255.996"/>
<path style="fill:#1B2DDD;" d="M511.99,257.091L380.048,125.15c-6.526-8.025-16.476-13.155-27.626-13.155
	c-0.098,0-0.195,0.005-0.295,0.006l-15.023-14.95c-9.534-10.964-23.574-17.902-39.245-17.902c-8.916,0-17.301,2.253-24.634,6.207
	L261.23,73.481c-12.047-13.454-29.537-21.93-49.019-21.93c-32.101,0-58.819,22.986-64.63,53.394
	c-3.524-0.995-7.238-1.538-11.081-1.538c-22.503,0-40.744,18.242-40.744,40.744c0,12.571,5.695,23.81,14.643,31.283l22.018,22.195
	v189.697c0,17.59,7.785,33.44,20.069,44.307l79.21,79.212c8.003,0.753,16.108,1.156,24.307,1.156
	C397.024,512,511.4,397.973,511.99,257.091z"/>
<path style="fill:#FFFFFF;" d="M410.051,203.896H369.18v-24.901c11.21-5.993,18.838-17.807,18.838-31.406
	c0-19.658-15.937-35.595-35.595-35.595c-2.048,0-4.052,0.183-6.005,0.514C338.917,93,320.012,79.148,297.861,79.148
	c-10.02,0-19.374,2.84-27.314,7.749c-10.994-21.004-32.984-35.346-58.335-35.346c-32.101,0-58.819,22.986-64.63,53.394
	c-3.524-0.995-7.238-1.538-11.081-1.538c-22.503,0-40.744,18.242-40.744,40.744c0,21.123,16.076,38.491,36.66,40.539v202.635
	c0,32.554,26.636,59.191,59.192,59.191H309.99c32.555,0,59.191-26.636,59.191-59.191v-1.856h40.871
	c17.874,0,32.414-14.541,32.414-32.414V236.311C442.465,218.437,427.925,203.896,410.051,203.896z M411.46,353.056
	c0,0.738-0.672,1.41-1.41,1.41H369.18V234.901h40.871c0.738,0,1.41,0.672,1.41,1.41V353.056z"/>
<path style="fill:#E1E1E3;" d="M410.051,203.896H369.18v-24.901c11.21-5.993,18.838-17.807,18.838-31.406
	c0-19.658-15.937-35.595-35.595-35.595c-2.048,0-4.052,0.183-6.005,0.514C338.917,93,320.012,79.148,297.861,79.148
	c-10.02,0-19.374,2.84-27.314,7.749c-4.741-9.058-11.53-16.872-19.748-22.836v382.454h59.191c32.555,0,59.191-26.636,59.191-59.191
	v-1.856h40.871c17.874,0,32.414-14.541,32.414-32.414V236.311C442.465,218.437,427.925,203.896,410.051,203.896z M411.46,353.056
	c0,0.738-0.672,1.41-1.41,1.41H369.18V234.901h40.871c0.738,0,1.41,0.672,1.41,1.41V353.056z"/>
<path style="fill:#FFA91F;" d="M191.608,446.517H309.99c32.555,0,59.191-26.636,59.191-59.191V203.897H132.417v183.429
	C132.417,419.881,159.053,446.517,191.608,446.517z"/>
<path style="fill:#FF8800;" d="M250.799,203.896v242.621h59.191c32.555,0,59.191-26.636,59.191-59.191V203.897H250.799V203.896z"/>
<g>
	<path style="fill:#E67500;" d="M187.641,405.627h-1.514c-9.56,0-17.381-7.821-17.381-17.381V275.803
		c0-9.56,7.821-17.381,17.381-17.381h1.514c9.56,0,17.381,7.821,17.381,17.381v112.442
		C205.022,397.806,197.201,405.627,187.641,405.627z"/>
	<path style="fill:#E67500;" d="M251.556,405.627h-1.514c-9.56,0-17.381-7.821-17.381-17.381V275.803
		c0-9.56,7.821-17.381,17.381-17.381h1.514c9.56,0,17.381,7.821,17.381,17.381v112.442
		C268.937,397.806,261.115,405.627,251.556,405.627z"/>
</g>
<g>
	<path style="fill:#C06100;" d="M251.556,258.423h-0.758v147.204h0.758c9.56,0,17.381-7.821,17.381-17.381V275.803
		C268.937,266.243,261.115,258.423,251.556,258.423z"/>
	<path style="fill:#C06100;" d="M315.47,405.627h-1.514c-9.56,0-17.381-7.821-17.381-17.381V275.803
		c0-9.56,7.821-17.381,17.381-17.381h1.514c9.56,0,17.381,7.821,17.381,17.381v112.442
		C332.852,397.806,325.03,405.627,315.47,405.627z"/>
</g>
</svg>